Input #0, mov,mp4,m4a,3gp,3g2,mj2, from '/Users/taeta/Pictures/Backup Cameras/iPhone X/RTPF3767.MP4':
  Metadata:
    major_brand     : isom
    minor_version   : 512
    compatible_brands: isomiso2avc1mp41
    date            : 0
    encoder         : Lavf54.33.100
  Duration: 00:00:13.33, start: 0.000000, bitrate: 4144 kb/s
    Stream #0:0(und): Video: h264 (High) (avc1 / 0x31637661), yuv420p, 1080x1920 [SAR 1:1 DAR 9:16], 4010 kb/s, 24 fps, 24 tbr, 12288 tbn, 48 tbc (default)
    Metadata:
      handler_name    : VideoHandler
    Stream #0:1(und): Audio: aac (LC) (mp4a / 0x6134706D), 44100 Hz, stereo, fltp, 128 kb/s (default)
    Metadata:
      handler_name    : SoundHandler
At least one output file must be specified
